<svg xmlns="http://www.w3.org/2000/svg" width="3200" height="9400" viewBox="0 0 3200 9400" fill="none">
  <g fill="#F8C7CD" fill-opacity="0.68">
    <g transform="translate(430.0 360.0) rotate(-17.00) scale(1.030 1.080)"><path d="M-80 -210C-6 -232 84 -204 146 -150C208 -96 242 -16 250 66C258 148 240 232 188 298C136 364 48 414 -40 408C-128 402 -214 340 -256 258C-298 176 -296 86 -262 8C-228 -70 -154 -188 -80 -210Z"/></g>
    <g transform="translate(2780.0 2550.0) rotate(-24.00) scale(0.960 1.140)"><path d="M0 -180C70 -178 136 -132 170 -64C204 4 204 92 174 164C144 236 84 292 12 304C-60 316 -132 284 -170 220C-208 156 -210 68 -184 2C-158 -64 -94 -182 0 -180Z"/></g>
    <g transform="translate(500.0 3440.0) rotate(12.00) scale(1.000 1.070)"><path d="M-260 12C-248 -52 -198 -102 -130 -126C-62 -150 22 -148 106 -132C190 -114 276 -80 334 -22C392 36 414 114 386 180C358 248 282 306 196 346C110 386 10 404 -86 386C-182 368 -276 314 -322 236C-368 160 -272 76 -260 12Z"/></g>
    <g transform="translate(2680.0 4300.0) rotate(-7.00) scale(1.180 1.010)"><path d="M-170 -70C-132 -142 -44 -186 44 -178C116 -172 176 -126 226 -90C286 -46 364 -16 380 52C398 120 354 192 286 238C218 284 126 302 38 302C-50 302 -140 282 -202 226C-264 172 -292 92 -274 20C-256 -50 -206 -8 -170 -70Z"/></g>
    <g transform="translate(330.0 5250.0) rotate(-16.00) scale(1.150 0.950)"><path d="M-150 -30C-130 -100 -60 -150 20 -160C98 -170 180 -140 230 -80C280 -20 290 60 250 128C210 196 132 244 50 258C-30 272 -112 248 -160 192C-206 136 -170 38 -150 -30Z"/></g>
    <g transform="translate(2790.0 6120.0) rotate(5.00) scale(1.020 1.200)"><path d="M-190 -10C-176 -90 -104 -154 -18 -178C68 -202 174 -184 250 -132C326 -80 364 0 358 84C352 170 300 252 220 304C140 356 34 378 -62 350C-156 324 -234 252 -254 160C-272 74 -204 58 -190 -10Z"/></g>
    <g transform="translate(460.0 7080.0) rotate(18.00) scale(1.100 0.870)"><path d="M-220 30C-210 -44 -150 -108 -68 -134C14 -160 108 -154 188 -124C268 -92 340 -36 364 44C388 124 362 214 302 282C242 350 146 394 46 402C-54 410 -156 384 -224 330C-292 278 -230 104 -220 30Z"/></g>
    <g transform="translate(2700.0 8020.0) rotate(-19.00) scale(0.920 1.220)"><path d="M-80 -210C-6 -232 84 -204 146 -150C208 -96 242 -16 250 66C258 148 240 232 188 298C136 364 48 414 -40 408C-128 402 -214 340 -256 258C-298 176 -296 86 -262 8C-228 -70 -154 -188 -80 -210Z"/></g>
    <g transform="translate(2740.0 9000.0) rotate(14.00) scale(0.880 0.980)"><path d="M-260 12C-248 -52 -198 -102 -130 -126C-62 -150 22 -148 106 -132C190 -114 276 -80 334 -22C392 36 414 114 386 180C358 248 282 306 196 346C110 386 10 404 -86 386C-182 368 -276 314 -322 236C-368 160 -272 76 -260 12Z"/></g>
  </g>
</svg>
