<svg xmlns="http://www.w3.org/2000/svg" width="760" height="9400" viewBox="0 0 760 9400" fill="none">
  <g fill="#F8C7CD" fill-opacity="0.68">
    <g transform="translate(596.0 210.0) rotate(6.00) scale(0.780 0.940)"><path d="M0 -180C70 -178 136 -132 170 -64C204 4 204 92 174 164C144 236 84 292 12 304C-60 316 -132 284 -170 220C-208 156 -210 68 -184 2C-158 -64 -94 -182 0 -180Z"/></g>
    <g transform="translate(175.0 760.0) rotate(-14.00) scale(0.820 0.920)"><path d="M-150 -30C-130 -100 -60 -150 20 -160C98 -170 180 -140 230 -80C280 -20 290 60 250 128C210 196 132 244 50 258C-30 272 -112 248 -160 192C-206 136 -170 38 -150 -30Z"/></g>
    <g transform="translate(490.0 1420.0) rotate(12.00) scale(0.740 1.020)"><path d="M-170 -70C-132 -142 -44 -186 44 -178C116 -172 176 -126 226 -90C286 -46 364 -16 380 52C398 120 354 192 286 238C218 284 126 302 38 302C-50 302 -140 282 -202 226C-264 172 -292 92 -274 20C-256 -50 -206 -8 -170 -70Z"/></g>
    <g transform="translate(167.0 2140.0) rotate(-20.00) scale(0.780 0.840)"><path d="M-220 30C-210 -44 -150 -108 -68 -134C14 -160 108 -154 188 -124C268 -92 340 -36 364 44C388 124 362 214 302 282C242 350 146 394 46 402C-54 410 -156 384 -224 330C-292 278 -230 104 -220 30Z"/></g>
    <g transform="translate(486.0 5000.0) rotate(-8.00) scale(0.720 0.960)"><path d="M-190 -10C-176 -90 -104 -154 -18 -178C68 -202 174 -184 250 -132C326 -80 364 0 358 84C352 170 300 252 220 304C140 356 34 378 -62 350C-156 324 -234 252 -254 160C-272 74 -204 58 -190 -10Z"/></g>
    <g transform="translate(196.0 6900.0) rotate(18.00) scale(0.820 0.820)"><path d="M-150 -30C-130 -100 -60 -150 20 -160C98 -170 180 -140 230 -80C280 -20 290 60 250 128C210 196 132 244 50 258C-30 272 -112 248 -160 192C-206 136 -170 38 -150 -30Z"/></g>
    <g transform="translate(526.0 7700.0) rotate(-10.00) scale(0.780 1.000)"><path d="M-150 -30C-130 -100 -60 -150 20 -160C98 -170 180 -140 230 -80C280 -20 290 60 250 128C210 196 132 244 50 258C-30 272 -112 248 -160 192C-206 136 -170 38 -150 -30Z"/></g>
    <g transform="translate(233.0 8480.0) rotate(16.00) scale(0.740 0.940)"><path d="M-170 -70C-132 -142 -44 -186 44 -178C116 -172 176 -126 226 -90C286 -46 364 -16 380 52C398 120 354 192 286 238C218 284 126 302 38 302C-50 302 -140 282 -202 226C-264 172 -292 92 -274 20C-256 -50 -206 -8 -170 -70Z"/></g>
    <g transform="translate(519.0 8988.0) rotate(-18.00) scale(0.740 1.000)"><path d="M-80 -210C-6 -232 84 -204 146 -150C208 -96 242 -16 250 66C258 148 240 232 188 298C136 364 48 414 -40 408C-128 402 -214 340 -256 258C-298 176 -296 86 -262 8C-228 -70 -154 -188 -80 -210Z"/></g>
  </g>
</svg>
